<svg width="32" height="47" viewBox="0 0 32 47" fill="none" xmlns="http://www.w3.org/2000/svg">
<path d="M28.1211 6.38672C28.2383 6.07422 28.2773 5.74219 28.2383 5.39062C28.2383 5.03906 28.2773 4.6875 28.3555 4.33594C28.3555 4.14062 28.3945 3.94531 28.4727 3.75C28.5508 3.55469 28.6094 3.35938 28.6484 3.16406C28.6875 3.00781 28.6875 2.87109 28.6484 2.75391C28.6094 2.59766 28.6094 2.44141 28.6484 2.28516C28.7266 2.01172 28.8242 1.77734 28.9414 1.58203C29.0977 1.34766 29.2539 1.13281 29.4102 0.9375C29.5664 0.898438 29.7422 0.898438 29.9375 0.9375C30.1328 0.976562 30.2891 1.05469 30.4062 1.17188C30.6016 1.71875 30.6406 2.16797 30.5234 2.51953C30.4453 2.87109 30.4062 3.22266 30.4062 3.57422C30.4062 3.69141 30.4258 3.82813 30.4648 3.98438C30.5039 4.10156 30.5234 4.21875 30.5234 4.33594C30.5234 4.49219 30.4844 4.62891 30.4062 4.74609C30.3281 4.86328 30.2891 4.98047 30.2891 5.09766C30.2891 5.21484 30.3086 5.33203 30.3477 5.44922C30.3867 5.56641 30.4062 5.66406 30.4062 5.74219C30.3281 6.17188 30.3086 6.48437 30.3477 6.67969C30.3867 6.875 30.3281 7.07031 30.1719 7.26562C30.25 7.38281 30.3281 7.65625 30.4062 8.08594C30.5234 8.51563 30.6016 8.78906 30.6406 8.90625C30.7188 9.29687 30.7188 9.57031 30.6406 9.72656C30.6016 9.84375 30.6016 10.0586 30.6406 10.3711C30.6406 10.5664 30.6602 10.7422 30.6992 10.8984C30.7773 11.0547 30.8164 11.2305 30.8164 11.4258C30.7773 11.8164 30.7578 12.0508 30.7578 12.1289C30.7969 12.168 30.8164 12.2266 30.8164 12.3047C30.7773 12.8125 30.7578 13.1445 30.7578 13.3008C30.7578 13.457 30.7188 13.6328 30.6406 13.8281C30.5625 14.0234 30.4258 14.2773 30.2305 14.5898C30.0742 14.9023 29.8789 15.0781 29.6445 15.1172C29.5664 15.1562 29.3906 15.1758 29.1172 15.1758C28.8828 15.1367 28.7266 15.0977 28.6484 15.0586C28.4531 14.668 28.3164 14.4336 28.2383 14.3555C28.1602 14.2383 28.1211 14.1406 28.1211 14.0625C28.2773 13.5547 28.2969 13.1641 28.1797 12.8906C28.1016 12.5781 28.043 12.3047 28.0039 12.0703C27.9648 11.9141 27.9453 11.7578 27.9453 11.6016C27.9844 11.4453 27.9648 11.2891 27.8867 11.1328C27.7305 10.7422 27.5938 10.4102 27.4766 10.1367C27.3984 9.82422 27.2812 9.53125 27.125 9.25781C27.0078 8.94531 26.8711 8.67188 26.7148 8.4375C26.5977 8.20312 26.4805 8.04688 26.3633 7.96875C26.4414 7.77344 26.4414 7.61719 26.3633 7.5C26.2852 7.38281 26.207 7.24609 26.1289 7.08984C26.0898 6.93359 26.0703 6.79688 26.0703 6.67969C26.0703 6.5625 26.0312 6.44531 25.9531 6.32812C25.6406 5.78125 25.25 5.35156 24.7812 5.03906C24.3516 4.72656 23.9414 4.35547 23.5508 3.92578C23.3945 3.88672 23.2578 3.84766 23.1406 3.80859C23.0625 3.76953 22.9453 3.76953 22.7891 3.80859C22.7109 3.49609 22.4375 3.28125 21.9688 3.16406C21.5391 3.00781 21.1875 2.89063 20.9141 2.8125C20.7188 2.73437 20.5234 2.71484 20.3281 2.75391C20.1719 2.75391 19.9961 2.73437 19.8008 2.69531C19.6445 2.65625 19.4883 2.61719 19.332 2.57812C19.1758 2.53906 19.0195 2.5 18.8633 2.46094C18.6289 2.46094 18.3945 2.48047 18.1602 2.51953C17.9648 2.55859 17.75 2.57812 17.5156 2.57812C16.7344 2.61719 15.9727 2.59766 15.2305 2.51953C14.4883 2.44141 13.7266 2.46094 12.9453 2.57812C12.4766 3.08594 12.0664 3.61328 11.7148 4.16016C11.3633 4.70703 11.1484 5.3125 11.0703 5.97656C10.9922 6.67969 10.9531 7.40234 10.9531 8.14453C10.9922 8.84766 10.9922 9.55078 10.9531 10.2539C10.9141 10.6055 10.8945 10.8008 10.8945 10.8398C10.9336 10.8789 10.9531 10.9375 10.9531 11.0156C10.9922 11.1328 10.9727 11.25 10.8945 11.3672C10.8555 11.4844 10.8555 11.6211 10.8945 11.7773C10.8945 12.3242 10.9336 13.0078 11.0117 13.8281C11.0898 14.6094 11.1875 15.2734 11.3047 15.8203C11.3828 16.25 11.4023 16.5234 11.3633 16.6406C11.3633 16.7578 11.4609 16.7969 11.6562 16.7578C11.5781 16.9141 11.5195 17.0898 11.4805 17.2852C11.4805 17.4805 11.4219 17.6367 11.3047 17.7539C11.3047 18.0273 11.4023 18.2422 11.5977 18.3984C11.793 18.5156 11.832 18.6719 11.7148 18.8672C11.9102 18.8281 12.0859 18.8086 12.2422 18.8086C12.3984 18.8086 12.5547 18.9062 12.7109 19.1016C13.1016 18.9844 13.3359 18.9453 13.4141 18.9844C13.5312 19.0234 13.7461 19.082 14.0586 19.1602C14.1758 19.1992 14.293 19.1992 14.4102 19.1602C14.5273 19.1211 14.6641 19.1211 14.8203 19.1602C15.0156 19.3555 15.1523 19.4336 15.2305 19.3945C15.3086 19.3555 15.3867 19.3555 15.4648 19.3945C15.7383 19.5898 16.0312 19.7461 16.3438 19.8633C16.6953 19.9414 16.9102 19.9609 16.9883 19.9219C17.3789 19.8828 17.7695 19.9609 18.1602 20.1562C18.5898 20.3125 19 20.4297 19.3906 20.5078C19.7031 20.5859 19.9961 20.625 20.2695 20.625C20.582 20.5859 20.8945 20.6055 21.207 20.6836C21.4023 20.7617 21.5781 20.8398 21.7344 20.918C21.9297 20.9961 22.125 21.0742 22.3203 21.1523C22.5156 21.2305 22.7109 21.2891 22.9062 21.3281C23.1406 21.3281 23.3555 21.3867 23.5508 21.5039C23.707 21.582 23.8438 21.6797 23.9609 21.7969C24.0781 21.9141 24.2148 22.0312 24.3711 22.1484C24.6445 22.3047 24.8008 22.3828 24.8398 22.3828C24.918 22.3438 25.0547 22.4805 25.25 22.793C25.5234 22.8711 25.6992 22.9297 25.7773 22.9688C25.8945 22.9688 26.0117 23.0859 26.1289 23.3203C26.3242 23.2812 26.4805 23.3008 26.5977 23.3789C26.7148 23.418 26.8125 23.4766 26.8906 23.5547C27.0078 23.6328 27.1055 23.7109 27.1836 23.7891C27.3008 23.8281 27.457 23.8281 27.6523 23.7891C27.6914 23.9844 27.7891 24.082 27.9453 24.082C28.1406 24.082 28.2969 24.1211 28.4141 24.1992C28.7266 24.3945 28.9805 24.6484 29.1758 24.9609C29.4102 25.2734 29.6641 25.5273 29.9375 25.7227C29.9766 26.0352 30.0547 26.3281 30.1719 26.6016C30.2891 26.8359 30.4062 27.0898 30.5234 27.3633C30.6406 27.7539 30.7188 27.9492 30.7578 27.9492C30.8359 27.9102 30.8945 27.9297 30.9336 28.0078C30.9727 28.0469 31.0508 28.2812 31.168 28.7109C31.2852 29.1406 31.3633 29.375 31.4023 29.4141C31.4805 29.8047 31.4805 30.0391 31.4023 30.1172C31.3633 30.1562 31.3633 30.2148 31.4023 30.293C31.4023 30.3711 31.4609 30.4883 31.5781 30.6445C31.6953 30.8008 31.6758 30.918 31.5195 30.9961C31.5586 31.1914 31.5586 31.3281 31.5195 31.4062C31.4805 31.4844 31.4805 31.5625 31.5195 31.6406C31.5195 31.8359 31.5586 32.0312 31.6367 32.2266C31.7539 32.4219 31.8125 32.6172 31.8125 32.8125C31.8125 33.0469 31.7734 33.2812 31.6953 33.5156C31.6562 33.75 31.6172 33.9844 31.5781 34.2188C31.5391 34.6484 31.5195 35.0781 31.5195 35.5078C31.5586 35.9375 31.4414 36.3086 31.168 36.6211C31.207 36.7773 31.2266 36.8945 31.2266 36.9727C31.2656 37.0508 31.2461 37.168 31.168 37.3242C31.0898 37.4023 31.0312 37.5195 30.9922 37.6758C30.9531 37.832 30.8945 37.9688 30.8164 38.0859C30.7383 38.2031 30.6406 38.3008 30.5234 38.3789C30.4453 38.418 30.4453 38.5352 30.5234 38.7305C30.2109 38.8477 29.9766 39.0625 29.8203 39.375C29.6641 39.6484 29.4883 39.9023 29.293 40.1367C28.9805 40.4102 28.7461 40.6445 28.5898 40.8398C28.4727 41.0352 28.3164 41.2305 28.1211 41.4258C27.8086 41.7383 27.457 42.0312 27.0664 42.3047C26.6758 42.5781 26.3047 42.832 25.9531 43.0664C25.7578 43.3008 25.6016 43.418 25.4844 43.418C25.3672 43.3789 25.2891 43.457 25.25 43.6523C24.9375 43.6523 24.6445 43.7109 24.3711 43.8281C24.0977 43.9453 23.8242 44.0625 23.5508 44.1797C23.3945 44.2578 23.2578 44.375 23.1406 44.5312C23.0625 44.6484 22.9648 44.7461 22.8477 44.8242C22.457 44.8633 22.0664 44.8633 21.6758 44.8242C21.5195 44.9023 21.3633 44.9805 21.207 45.0586C21.0898 45.1367 20.9531 45.2148 20.7969 45.293C20.6797 45.293 20.543 45.2734 20.3867 45.2344C20.2695 45.2344 20.1523 45.2539 20.0352 45.293C19.6445 45.4492 19.3906 45.5078 19.2734 45.4688C19.1953 45.4688 19.1172 45.4688 19.0391 45.4688C18.8828 45.5469 18.7266 45.6055 18.5703 45.6445C18.4531 45.7227 18.3164 45.7812 18.1602 45.8203C17.5352 45.9766 16.8906 46.1133 16.2266 46.2305C15.5625 46.3477 14.8984 46.3867 14.2344 46.3477C14.0781 46.3477 13.8047 46.3086 13.4141 46.2305C13.0234 46.1523 12.7891 46.1133 12.7109 46.1133C12.3984 46.2305 12.1055 46.25 11.832 46.1719C11.5977 46.0938 11.3438 45.9961 11.0703 45.8789C10.7969 45.8008 10.5234 45.7031 10.25 45.5859C9.97656 45.4688 9.74219 45.3906 9.54688 45.3516C9.27344 45 8.94141 44.707 8.55078 44.4727C8.16016 44.2383 7.80859 43.9648 7.49609 43.6523C7.30078 43.6133 7.125 43.5547 6.96875 43.4766C6.85156 43.3984 6.65625 43.3789 6.38281 43.418C6.38281 43.3789 6.26562 43.2422 6.03125 43.0078C5.83594 42.7734 5.60156 42.5195 5.32812 42.2461C5.05469 41.9727 4.78125 41.7383 4.50781 41.543C4.23438 41.3086 4.05859 41.1719 3.98047 41.1328C4.01953 40.9766 4.01953 40.8594 3.98047 40.7812C3.94141 40.7031 3.90234 40.6055 3.86328 40.4883C3.86328 40.293 3.78516 40.2148 3.62891 40.2539C3.51172 40.293 3.41406 40.2148 3.33594 40.0195C2.98438 40.2539 2.78906 40.4297 2.75 40.5469C2.71094 40.625 2.69141 40.7031 2.69141 40.7812C2.69141 40.9766 2.73047 41.1914 2.80859 41.4258C2.88672 41.6211 2.92578 41.8164 2.92578 42.0117C2.84766 42.2852 2.82812 42.5391 2.86719 42.7734C2.90625 42.9688 2.94531 43.1055 2.98438 43.1836C2.82812 43.457 2.76953 43.75 2.80859 44.0625C2.84766 44.3359 2.84766 44.6289 2.80859 44.9414C2.61328 45.0977 2.55469 45.2344 2.63281 45.3516C2.71094 45.5078 2.65234 45.625 2.45703 45.7031C2.26172 45.7812 2.00781 45.7812 1.69531 45.7031C1.42188 45.625 1.20703 45.5469 1.05078 45.4688C0.972656 45.3516 0.894531 45.2344 0.816406 45.1172C0.777344 45 0.738281 44.8633 0.699219 44.707C0.699219 44.5508 0.738281 44.3945 0.816406 44.2383C0.933594 44.043 1.01172 43.8477 1.05078 43.6523C1.08984 43.2617 1.05078 42.8711 0.933594 42.4805C0.816406 42.0898 0.816406 41.7188 0.933594 41.3672C0.855469 41.25 0.796875 41.1328 0.757812 41.0156C0.71875 40.8594 0.660156 40.7422 0.582031 40.6641C0.621094 40.5078 0.621094 40.1953 0.582031 39.7266C0.582031 39.2188 0.582031 38.7109 0.582031 38.2031C0.582031 37.6562 0.582031 37.168 0.582031 36.7383C0.582031 36.3086 0.621094 36.0547 0.699219 35.9766C0.621094 35.7812 0.621094 35.625 0.699219 35.5078C0.777344 35.3516 0.816406 35.2148 0.816406 35.0977C0.855469 34.8242 0.835938 34.5508 0.757812 34.2773C0.71875 33.9648 0.699219 33.6719 0.699219 33.3984C0.699219 32.8125 0.777344 32.2656 0.933594 31.7578C1.08984 31.2109 1.20703 30.6641 1.28516 30.1172C1.83203 29.8047 2.32031 29.8242 2.75 30.1758C3.21875 30.4883 3.29688 30.9375 2.98438 31.5234C3.10156 31.7188 3.14062 31.9531 3.10156 32.2266C3.10156 32.5 3.08203 32.832 3.04297 33.2227C3.04297 33.5742 3.0625 33.9844 3.10156 34.4531C3.17969 34.8828 3.33594 35.3516 3.57031 35.8594C3.64844 36.0547 3.72656 36.25 3.80469 36.4453C3.88281 36.6406 4.01953 36.7383 4.21484 36.7383C4.33203 37.2461 4.44922 37.6172 4.56641 37.8516C4.72266 38.0859 4.87891 38.3203 5.03516 38.5547C5.19141 38.7891 5.34766 39.0039 5.50391 39.1992C5.66016 39.3945 5.81641 39.4922 5.97266 39.4922C5.93359 39.8438 6.01172 40.0781 6.20703 40.1953C6.44141 40.2734 6.57813 40.4688 6.61719 40.7812C6.8125 40.8984 7.00781 41.0352 7.20312 41.1914C7.39844 41.3086 7.57422 41.4648 7.73047 41.6602C7.88672 41.582 8.00391 41.6016 8.08203 41.7188C8.19922 41.8359 8.33594 41.9336 8.49219 42.0117C8.60938 42.0508 8.72656 42.0703 8.84375 42.0703C9 42.0703 9.13672 42.1094 9.25391 42.1875C9.33203 42.2656 9.48828 42.4609 9.72266 42.7734C9.95703 43.0469 10.0742 43.2227 10.0742 43.3008C10.5039 43.418 10.8359 43.6328 11.0703 43.9453C11.3828 43.9453 11.6758 44.0039 11.9492 44.1211C12.2227 44.2383 12.5156 44.3359 12.8281 44.4141C13.1016 44.4531 13.3555 44.4531 13.5898 44.4141C13.8242 44.375 14.0781 44.375 14.3516 44.4141C14.4688 44.4141 14.5859 44.4336 14.7031 44.4727C14.8203 44.5117 14.918 44.5312 14.9961 44.5312C15.2695 44.5312 15.6211 44.4922 16.0508 44.4141C16.4805 44.3359 16.9102 44.2578 17.3398 44.1797C17.8086 44.0625 18.2578 43.9453 18.6875 43.8281C19.1172 43.7109 19.4492 43.6133 19.6836 43.5352C20.2305 43.3398 20.5625 43.2227 20.6797 43.1836C20.7969 43.1445 20.9141 43.125 21.0312 43.125C21.1484 43.0859 21.2656 43.0273 21.3828 42.9492C21.5391 42.8711 21.7148 42.7344 21.9102 42.5391C22.2227 42.1094 22.3594 41.8359 22.3203 41.7188C22.3203 41.6016 22.3203 41.4844 22.3203 41.3672C22.3984 40.9766 22.3984 40.7031 22.3203 40.5469C22.3594 40.4688 22.3984 40.3711 22.4375 40.2539C22.4766 40.1367 22.5156 40.0195 22.5547 39.9023C22.5938 39.5117 22.5938 39.1406 22.5547 38.7891C22.5547 38.4375 22.5938 38.0469 22.6719 37.6172C22.75 37.3438 22.8086 37.0898 22.8477 36.8555C22.9258 36.582 22.9648 36.2891 22.9648 35.9766C23.0039 35.5078 22.9648 35.0391 22.8477 34.5703C22.7305 34.0625 22.7109 33.5547 22.7891 33.0469C22.8672 32.6172 22.8867 32.3633 22.8477 32.2852C22.8477 32.207 22.8867 32.1289 22.9648 32.0508C22.9258 31.5039 22.9062 30.8789 22.9062 30.1758C22.9453 29.4336 22.8281 28.8281 22.5547 28.3594C22.5547 28.2422 22.5742 28.1055 22.6133 27.9492C22.6523 27.793 22.6719 27.6758 22.6719 27.5977C22.6719 27.207 22.6133 26.9531 22.4961 26.8359C22.3789 26.6797 22.2812 26.5234 22.2031 26.3672C22.1641 25.8594 22.0273 25.4492 21.793 25.1367C21.5586 24.7852 21.2266 24.4727 20.7969 24.1992C20.7188 23.6523 20.4844 23.1641 20.0938 22.7344C19.7422 22.3047 19.2539 22.168 18.6289 22.3242C18.4336 22.2461 18.2188 22.1875 17.9844 22.1484C17.7891 22.0703 17.5938 22.0703 17.3984 22.1484C16.9297 21.875 16.4609 21.6797 15.9922 21.5625C15.875 21.5625 15.7578 21.582 15.6406 21.6211C15.5625 21.6211 15.4648 21.6016 15.3477 21.5625C14.957 21.4453 14.5273 21.2305 14.0586 20.918C13.5117 20.9961 12.9453 20.9961 12.3594 20.918C11.7734 20.8398 11.207 20.8789 10.6602 21.0352C10.4648 20.8398 10.2109 20.6836 9.89844 20.5664C9.58594 20.4492 9.29297 20.3516 9.01953 20.2734C8.90234 20.2344 8.78516 20.2344 8.66797 20.2734C8.55078 20.2734 8.45312 20.2344 8.375 20.1562C8.02344 20 7.73047 19.7656 7.49609 19.4531C7.30078 19.1406 7.04688 18.9062 6.73438 18.75C6.53906 18.1641 6.24609 17.7344 5.85547 17.4609C5.77734 17.1484 5.66016 16.8359 5.50391 16.5234C5.38672 16.1719 5.17188 15.8984 4.85938 15.7031C4.89844 15.5469 4.87891 15.4297 4.80078 15.3516C4.76172 15.2734 4.74219 15.1758 4.74219 15.0586C4.3125 14.5117 4 13.9258 3.80469 13.3008C3.64844 12.6367 3.41406 12.0117 3.10156 11.4258C3.21875 11.3477 3.27734 11.2305 3.27734 11.0742C3.27734 10.918 3.25781 10.7617 3.21875 10.6055C3.17969 10.4492 3.14062 10.293 3.10156 10.1367C3.10156 9.98047 3.14062 9.86328 3.21875 9.78516C3.45312 9.35547 3.60938 8.98438 3.6875 8.67188C3.80469 8.35937 3.94141 8.125 4.09766 7.96875C4.05859 7.8125 4.05859 7.67578 4.09766 7.55859C4.13672 7.40234 4.17578 7.24609 4.21484 7.08984C4.21484 6.93359 4.27344 6.83594 4.39062 6.79688C4.50781 6.71875 4.58594 6.62109 4.625 6.50391C4.625 6.26953 4.68359 6.07422 4.80078 5.91797C4.91797 5.76172 4.97656 5.56641 4.97656 5.33203C5.67969 4.55078 6.1875 4.02344 6.5 3.75C6.8125 3.4375 7.24219 3.16406 7.78906 2.92969C7.94531 2.85156 8.04297 2.75391 8.08203 2.63672C8.12109 2.51953 8.17969 2.40234 8.25781 2.28516C8.375 2.28516 8.58984 2.22656 8.90234 2.10938C9.21484 1.99219 9.42969 1.89453 9.54688 1.81641C9.70312 1.62109 9.82031 1.54297 9.89844 1.58203C10.0156 1.58203 10.1133 1.5625 10.1914 1.52344C10.5039 1.21094 10.7773 1.07422 11.0117 1.11328C11.2461 1.11328 11.5195 1.05469 11.832 0.9375C12.3398 0.742187 12.6719 0.683594 12.8281 0.761719C12.9844 0.800781 13.1406 0.722656 13.2969 0.527344C13.8438 0.527344 14.1953 0.527344 14.3516 0.527344C14.5469 0.488281 14.7227 0.488281 14.8789 0.527344C15.3867 0.605469 15.7383 0.605469 15.9336 0.527344C16.1289 0.449219 16.3242 0.449219 16.5195 0.527344C16.9102 0.527344 17.125 0.566406 17.1641 0.644531C17.2422 0.722656 17.3203 0.761719 17.3984 0.761719C18.0625 0.683594 18.5117 0.664063 18.7461 0.703125C19.0195 0.742187 19.3125 0.683594 19.625 0.527344C19.8984 0.761719 20.2109 0.859375 20.5625 0.820312C20.9141 0.78125 21.207 0.898438 21.4414 1.17188C21.7148 1.13281 21.9297 1.15234 22.0859 1.23047C22.2812 1.26953 22.457 1.32812 22.6133 1.40625C22.7695 1.48438 22.9258 1.5625 23.082 1.64062C23.2773 1.67969 23.4922 1.69922 23.7266 1.69922C23.8438 2.01172 24.0586 2.20703 24.3711 2.28516C24.6836 2.32422 24.8789 2.5 24.957 2.8125C25.3867 2.89063 25.6992 3.08594 25.8945 3.39844C26.1289 3.67187 26.4219 3.88672 26.7734 4.04297C26.9688 4.43359 27.2422 4.74609 27.5938 4.98047C27.5547 5.29297 27.6133 5.54687 27.7695 5.74219C27.9258 5.89844 28.043 6.11328 28.1211 6.38672ZM6.08984 8.49609C5.89453 8.61328 5.77734 8.78906 5.73828 9.02344C5.73828 9.25781 5.69922 9.47266 5.62109 9.66797C5.50391 10.0977 5.42578 10.4492 5.38672 10.7227C5.34766 10.957 5.34766 11.1914 5.38672 11.4258C5.42578 11.6602 5.46484 11.8945 5.50391 12.1289C5.58203 12.3633 5.66016 12.6758 5.73828 13.0664C6.05078 13.5352 6.34375 14.0039 6.61719 14.4727C6.89062 14.9414 7.10547 15.4492 7.26172 15.9961C7.65234 16.3086 7.96484 16.6797 8.19922 17.1094C8.43359 17.5 8.78516 17.793 9.25391 17.9883C9.33203 17.6758 9.33203 17.3633 9.25391 17.0508C9.17578 16.7383 9.13672 16.4258 9.13672 16.1133C9.13672 15.9961 9.15625 15.8984 9.19531 15.8203C9.23438 15.7031 9.25391 15.5859 9.25391 15.4688C9.21484 15.3516 9.17578 15.2539 9.13672 15.1758C9.09766 15.0586 9.05859 14.9414 9.01953 14.8242C8.82422 14.0039 8.72656 13.2422 8.72656 12.5391C8.72656 11.7969 8.74609 11.0742 8.78516 10.3711C8.78516 10.1367 8.80469 9.92188 8.84375 9.72656C8.88281 9.49219 8.90234 9.25781 8.90234 9.02344C8.74609 8.71094 8.74609 8.33984 8.90234 7.91016C9.05859 7.44141 9.13672 7.05078 9.13672 6.73828C9.13672 6.62109 9.09766 6.52344 9.01953 6.44531C8.98047 6.32812 8.98047 6.21094 9.01953 6.09375C9.01953 5.9375 9.05859 5.80078 9.13672 5.68359C9.21484 5.52734 9.27344 5.37109 9.3125 5.21484C9.3125 4.94141 9.35156 4.64844 9.42969 4.33594C9.42969 4.17969 9.37109 4.12109 9.25391 4.16016C9.17578 4.19922 9.07812 4.25781 8.96094 4.33594C8.84375 4.41406 8.72656 4.51172 8.60938 4.62891C8.49219 4.70703 8.41406 4.76563 8.375 4.80469C8.17969 4.92188 7.96484 5.05859 7.73047 5.21484C7.49609 5.37109 7.30078 5.54687 7.14453 5.74219C6.94922 6.05469 6.69531 6.50391 6.38281 7.08984C6.10938 7.63672 6.01172 8.10547 6.08984 8.49609ZM24.0781 24.7266C24.0391 25.0391 24.0781 25.3125 24.1953 25.5469C24.3125 25.7812 24.4102 26.0156 24.4883 26.25C24.5664 26.4453 24.6055 26.6406 24.6055 26.8359C24.6055 26.9922 24.6445 27.168 24.7227 27.3633C24.8008 27.5586 24.8594 27.7344 24.8984 27.8906C24.9766 28.0078 25.0352 28.1641 25.0742 28.3594C25.0742 28.4766 25.0352 28.5938 24.957 28.7109C24.918 28.8281 24.918 28.9648 24.957 29.1211C24.957 29.2383 24.9766 29.3555 25.0156 29.4727C25.0938 29.5898 25.1523 29.7266 25.1914 29.8828C25.1914 30.3125 25.1523 30.7227 25.0742 31.1133C24.9961 31.4648 24.957 31.8555 24.957 32.2852C24.957 32.5586 24.957 32.8125 24.957 33.0469C24.9961 33.2812 25.0352 33.5352 25.0742 33.8086C25.0742 33.8867 25.0547 34.082 25.0156 34.3945C24.9766 34.668 24.9961 34.8438 25.0742 34.9219C24.9961 35.1562 24.9961 35.3711 25.0742 35.5664C25.2695 35.918 25.2695 36.2695 25.0742 36.6211C24.8789 36.9727 24.8008 37.3047 24.8398 37.6172C24.8398 38.0078 24.8594 38.2617 24.8984 38.3789C24.9375 38.457 24.957 38.5352 24.957 38.6133C24.918 38.9258 24.8398 39.1992 24.7227 39.4336C24.6055 39.668 24.6445 39.9414 24.8398 40.2539C24.7617 40.4492 24.7227 40.6641 24.7227 40.8984C24.7227 41.1328 24.6836 41.3477 24.6055 41.543C25.0742 41.582 25.5039 41.3672 25.8945 40.8984C26.3242 40.4297 26.6953 40.0586 27.0078 39.7852C27.2422 39.668 27.3594 39.5508 27.3594 39.4336C27.3594 39.3164 27.3984 39.2188 27.4766 39.1406C28.0625 38.5156 28.5117 37.9492 28.8242 37.4414C29.1758 36.8945 29.4102 36.3672 29.5273 35.8594C29.6055 35.5469 29.625 35.3711 29.5859 35.332C29.5469 35.2539 29.5273 35.1367 29.5273 34.9805C29.6836 34.5898 29.7422 34.3555 29.7031 34.2773C29.6641 34.1602 29.6445 34.043 29.6445 33.9258C29.6055 33.6133 29.6055 33.3398 29.6445 33.1055C29.7227 32.832 29.8008 32.5586 29.8789 32.2852C29.7617 31.8555 29.625 31.3672 29.4688 30.8203C29.3125 30.2734 29.2539 29.7852 29.293 29.3555C29.0977 29.0039 28.9219 28.6328 28.7656 28.2422C28.6484 27.8125 28.4922 27.4219 28.2969 27.0703C28.1406 26.6797 27.9258 26.3477 27.6523 26.0742C27.3789 25.8008 26.9883 25.6445 26.4805 25.6055C26.4023 25.4102 26.2266 25.2539 25.9531 25.1367C25.6797 25.0195 25.4453 24.9219 25.25 24.8438C25.0938 24.8047 24.957 24.707 24.8398 24.5508C24.7227 24.3945 24.5664 24.3555 24.3711 24.4336C24.332 24.1992 24.1953 24.0625 23.9609 24.0234C23.7656 23.9453 23.6289 23.8281 23.5508 23.6719C23.3945 23.8672 23.3945 24.043 23.5508 24.1992C23.7461 24.3555 23.9219 24.5312 24.0781 24.7266Z" fill="#E50914"/>
</svg>
